<svg width="509" height="509" viewBox="0 0 509 509" fill="none" xmlns="http://www.w3.org/2000/svg">
<path d="M373.1 21.97C401.2 -6.14705 446.8 -6.14705 474.9 21.97L487 34.09C515.1 62.21 515.1 107.8 487 135.9L289.8 333.2C281.1 341.8 270.4 348.1 258.6 351.5L158.6 380.1C150.2 382.5 141.2 380.1 135 373.1C128.9 367.8 126.5 358.8 128.9 350.4L157.5 250.4C160.9 238.6 167.2 227.9 175.8 219.2L373.1 21.97ZM440.1 55.91C431.6 46.54 416.4 46.54 407 55.91L377.9 85L424 131.1L453.1 101.1C462.5 92.6 462.5 77.4 453.1 68.03L440.1 55.91ZM203.7 263.6L186.9 322.1L245.4 305.3C249.4 304.2 252.9 302.1 255.8 299.2L390.1 165L344 118.9L209.8 253.2C206.9 256.1 204.8 259.6 203.7 263.6ZM200 61C213.3 61 224 71.75 224 85C224 98.3 213.3 109 200 109H88C65.91 109 48 126.9 48 149V421C48 443.1 65.91 461 88 461H360C382.1 461 400 443.1 400 421V309C400 295.7 410.7 285 424 285C437.3 285 448 295.7 448 309V421C448 469.6 408.6 509 360 509H88C39.4 509 0 469.6 0 421V149C0 100.4 39.4 61 88 61H200Z" fill="#F7E200"/>
</svg>
